<svg width="40" height="40" viewBox="0 0 40 40" fill="none" xmlns="http://www.w3.org/2000/svg">
<path d="M0.5 20C0.5 9.23045 9.23045 0.5 20 0.5C30.7696 0.5 39.5 9.23045 39.5 20C39.5 30.7696 30.7696 39.5 20 39.5C9.23045 39.5 0.5 30.7696 0.5 20Z" fill="white" fill-opacity="0.1" stroke="white"/>
<path d="M15.625 25.25C14.6625 25.25 13.8838 26.0375 13.8838 27C13.8838 27.9625 14.6625 28.75 15.625 28.75C16.5875 28.75 17.375 27.9625 17.375 27C17.375 26.0375 16.5875 25.25 15.625 25.25ZM10.375 11.25V13H12.125L15.275 19.6413L14.0938 21.785C13.9538 22.03 13.875 22.3188 13.875 22.625C13.875 23.5875 14.6625 24.375 15.625 24.375H26.125V22.625H15.9925C15.87 22.625 15.7738 22.5288 15.7738 22.4062L15.8 22.3013L16.5875 20.875H23.1063C23.7625 20.875 24.34 20.5163 24.6375 19.9738L27.77 14.295C27.84 14.1725 27.875 14.0238 27.875 13.875C27.875 13.3937 27.4813 13 27 13H14.0588L13.2362 11.25H10.375ZM24.375 25.25C23.4125 25.25 22.6338 26.0375 22.6338 27C22.6338 27.9625 23.4125 28.75 24.375 28.75C25.3375 28.75 26.125 27.9625 26.125 27C26.125 26.0375 25.3375 25.25 24.375 25.25Z" fill="white"/>
</svg>
